<svg preserveAspectRatio="xMinYMin meet" width="1881.5" height="1563.36" overflow="visible" viewBox="0 0 1881.5 1563.36" fill="none" xmlns="http://www.w3.org/2000/svg">
<g id="BG Comp">
<path id="Isologo" d="M1100.51 372.048H1100.05C1099.9 372.048 1099.75 372.048 1099.6 372.048C992.681 372.225 890.819 414.19 814.796 488.112C775.902 471.615 733.946 463.075 690.647 463.075C514.964 463.075 372.048 606 372.048 781.674C372.048 957.349 514.973 1100.27 690.647 1100.27C733.287 1100.27 775.455 1091.58 814.467 1075.15C888.296 1146.96 988.951 1191.3 1099.83 1191.3C1325.69 1191.3 1509.46 1007.54 1509.46 781.666C1509.46 555.79 1326.07 372.394 1100.51 372.031V372.048ZM1099.83 1100.28C924.143 1100.28 781.227 957.357 781.227 781.683H690.2C690.2 862.018 713.541 936.969 753.658 1000.28C733.262 1006.13 712.056 1009.25 690.647 1009.25C565.165 1009.25 463.075 907.164 463.075 781.683C463.075 656.201 565.165 554.111 690.647 554.111C740.35 554.111 787.547 569.832 827.15 599.578C885.03 643.045 918.219 709.414 918.219 781.683H1009.25C1009.25 686.352 967.973 598.379 895.46 537.655C952.412 489.851 1024.65 463.134 1100.05 463.084C1275.63 463.202 1418.42 606.084 1418.42 781.683C1418.42 957.281 1275.5 1100.28 1099.83 1100.28Z" stroke="var(--stroke-0, #0050C3)" stroke-width="1.5" stroke-miterlimit="10"/>
<path id="Propagation" opacity="0.6" d="M1099.83 1284.13C1033.35 1284.13 968.683 1271.26 907.612 1245.87C866.761 1228.89 828.669 1206.8 793.826 1179.93C760.199 1188.69 725.676 1193.11 690.648 1193.11C463.785 1193.11 279.224 1008.55 279.224 781.683C279.224 554.819 463.793 370.259 690.648 370.259C725.997 370.259 760.637 374.647 794.198 383.347C829.716 355.998 868.651 333.61 910.498 316.505C970.758 291.881 1034.33 279.333 1099.45 279.232H1099.47H1099.4H1100.66C1168.29 279.342 1233.97 292.734 1295.89 319.054C1355.6 344.437 1409.22 380.689 1455.27 426.806C1501.32 472.923 1537.49 526.609 1562.78 586.363C1588.99 648.327 1602.29 714.039 1602.29 781.691C1602.29 1058.75 1376.89 1284.15 1099.84 1284.15L1099.83 1284.13Z" stroke="var(--stroke-0, #0050C3)" stroke-width="1.5" stroke-miterlimit="10"/>
<path id="Propagation_2" opacity="0.4" d="M1099.82 1376.96C1021.05 1376.96 944.394 1361.69 871.974 1331.58C837.41 1317.21 804.322 1299.64 773.167 1279.13C745.952 1283.65 718.341 1285.93 690.646 1285.93C412.603 1285.93 186.398 1059.73 186.398 781.683C186.398 503.639 412.603 277.426 690.646 277.426C718.544 277.426 746.273 279.696 773.521 284.185C805.571 263.123 839.68 245.157 875.375 230.575C946.791 201.386 1022.12 186.526 1099.29 186.399H1100.8C1180.93 186.526 1258.78 202.416 1332.19 233.621C1402.93 263.688 1466.43 306.615 1520.94 361.213C1575.46 415.811 1618.29 479.387 1648.25 550.178C1679.34 623.653 1695.11 701.541 1695.11 781.683C1695.11 1109.92 1428.07 1376.97 1099.83 1376.97L1099.82 1376.96Z" stroke="var(--stroke-0, #0050C3)" stroke-width="1.5" stroke-miterlimit="10"/>
<path id="Propagation_3" opacity="0.2" d="M1099.83 1469.78C1008.76 1469.78 920.117 1452.12 836.339 1417.29C807.529 1405.32 779.454 1391.33 752.501 1375.54C731.953 1377.68 711.253 1378.76 690.646 1378.76C361.415 1378.76 93.5739 1110.91 93.5739 781.683C93.5739 452.459 361.423 184.602 690.646 184.602C711.405 184.602 732.215 185.673 752.847 187.808C780.889 171.404 810.162 156.94 840.254 144.645C922.817 110.899 1009.92 93.718 1099.13 93.5746H1100.95C1193.57 93.718 1283.58 112.097 1368.5 148.189C1450.27 182.948 1523.65 232.55 1586.63 295.62C1649.61 358.698 1699.1 432.165 1733.73 513.994C1769.7 598.979 1787.93 689.035 1787.93 781.674C1787.93 1161.1 1479.25 1469.78 1099.83 1469.78H1099.83Z" stroke="var(--stroke-0, #0050C3)" stroke-width="1.5" stroke-miterlimit="10"/>
<path id="Propagation_4" opacity="0.1" d="M1099.83 1562.61C996.47 1562.61 895.831 1542.56 800.703 1503C777.337 1493.29 754.274 1482.35 731.844 1470.34C718.089 1471.16 704.317 1471.58 690.647 1471.58C310.235 1471.58 0.75 1162.09 0.75 781.682C0.75 401.271 310.235 91.7771 690.647 91.7771C704.444 91.7771 718.342 92.1906 732.199 93.0175C755.919 80.3428 780.349 68.8494 805.133 58.7231C898.861 20.4204 997.727 0.918773 1098.99 0.750001H1101.1C1206.22 0.918773 1308.4 21.779 1404.81 62.7652C1497.6 102.207 1580.88 158.484 1652.32 230.035C1723.76 301.586 1779.92 384.959 1819.22 477.817C1860.05 574.304 1880.75 676.538 1880.75 781.674C1880.75 1212.28 1530.43 1562.61 1099.83 1562.61Z" stroke="var(--stroke-0, #0050C3)" stroke-width="1.5" stroke-miterlimit="10"/>
</g>
</svg>
