<svg preserveAspectRatio="none" width="100%" height="100%" overflow="visible" style="display: block;" viewBox="0 0 363.769 61.5435" fill="none" xmlns="http://www.w3.org/2000/svg">
<g id="logoMX">
<path id="Vector" d="M117.256 44.4673V17.0759H123.847V44.4673H117.256ZM153.451 24.704C152.847 23.1087 151.973 21.6915 150.835 20.4485C149.693 19.2056 148.312 18.2337 146.683 17.529C145.053 16.8242 143.169 16.4719 141.021 16.4719C138.471 16.4719 136.164 17.0914 134.102 18.3344C132.039 19.5773 130.41 21.2617 129.222 23.3952C128.03 25.5288 127.434 27.9682 127.434 30.7213C127.434 33.4744 128.022 35.7899 129.195 37.9699C130.367 40.1538 132.012 41.8807 134.125 43.1547C136.238 44.4325 138.703 45.0675 141.52 45.0675C143.397 45.0675 145.119 44.7809 146.679 44.2117C148.238 43.6425 149.589 42.8526 150.731 41.8459C151.872 40.8391 152.708 39.6814 153.246 38.3726L147.913 35.755C147.31 36.8315 146.478 37.6872 145.421 38.3222C144.365 38.9611 143.08 39.2787 141.571 39.2787C140.061 39.2787 138.726 38.9263 137.569 38.2216C136.412 37.5168 135.538 36.5178 134.953 35.2246C134.593 34.4346 134.369 33.5673 134.28 32.6302H153.997C154.132 32.2624 154.221 31.8248 154.271 31.3215C154.322 30.8181 154.349 30.3302 154.349 29.8617C154.349 28.0147 154.047 26.2954 153.443 24.7001L153.451 24.704ZM137.349 22.9422C138.421 22.253 139.647 21.9083 141.021 21.9083C142.395 21.9083 143.695 22.2607 144.721 22.9654C145.742 23.6701 146.481 24.6266 146.934 25.8347C147.139 26.3845 147.263 26.9731 147.313 27.5965H134.423C134.535 27.0118 134.694 26.4658 134.907 25.9586C135.46 24.6343 136.273 23.6276 137.349 22.9383V22.9422ZM180.819 21.4321C179.948 19.8716 178.729 18.6558 177.169 17.7807C175.61 16.9094 173.822 16.4719 171.81 16.4719C169.797 16.4719 168.16 16.9017 166.701 17.7574C165.575 18.4196 164.697 19.3179 164.058 20.4485V17.0798H157.87V44.4712H164.461V28.4096C164.461 27.2015 164.697 26.1599 165.165 25.2887C165.633 24.4175 166.287 23.736 167.127 23.2481C167.967 22.7602 168.923 22.5163 169.995 22.5163C171.067 22.5163 172.065 22.7602 172.889 23.2481C173.71 23.736 174.356 24.4136 174.828 25.2887C175.296 26.1638 175.532 27.2015 175.532 28.4096V44.4712H182.123V26.8492C182.123 24.8008 181.685 22.9964 180.815 21.4359L180.819 21.4321ZM207.718 6.79932V19.8484C206.928 18.9849 205.984 18.2685 204.873 17.7071C203.244 16.8862 201.394 16.4719 199.313 16.4719C196.727 16.4719 194.39 17.1108 192.293 18.3847C190.195 19.6625 188.543 21.374 187.335 23.5191C186.128 25.6682 185.524 28.0844 185.524 30.7677C185.524 33.4511 186.128 35.8363 187.335 38.0164C188.543 40.2002 190.187 41.9194 192.266 43.1779C194.344 44.4363 196.712 45.0675 199.359 45.0675C201.336 45.0675 203.167 44.6725 204.843 43.8826C206.135 43.2747 207.207 42.4577 208.062 41.4393V44.4596H214.3V6.79932H207.71H207.718ZM206.739 35.0503C206.085 36.2933 205.187 37.2652 204.045 37.9699C202.904 38.6746 201.58 39.027 200.071 39.027C198.562 39.027 197.269 38.6746 196.097 37.9699C194.92 37.2652 194.007 36.2933 193.353 35.0503C192.699 33.8074 192.37 32.3824 192.37 30.7716C192.37 29.1608 192.699 27.7436 193.353 26.5162C194.007 25.2926 194.92 24.3168 196.097 23.5966C197.269 22.8764 198.597 22.5124 200.071 22.5124C201.545 22.5124 202.904 22.8647 204.045 23.5695C205.187 24.2742 206.085 25.2577 206.739 26.5162C207.393 27.7746 207.722 29.1918 207.722 30.7716C207.722 32.3514 207.393 33.8112 206.739 35.0503ZM240.875 21.13C239.919 19.6702 238.584 18.528 236.873 17.7071C235.163 16.8862 233.181 16.4719 230.937 16.4719C229.091 16.4719 227.38 16.7739 225.805 17.378C224.227 17.982 222.861 18.8145 221.703 19.8716C220.546 20.9287 219.699 22.1794 219.161 23.6237L224.544 26.2412C225.047 24.9983 225.844 23.9993 226.935 23.2442C228.027 22.4892 229.277 22.1097 230.685 22.1097C232.195 22.1097 233.41 22.5046 234.335 23.2946C235.256 24.0845 235.72 25.0641 235.72 26.2412V27.1279L227.57 28.4561C225.422 28.793 223.646 29.3622 222.237 30.1676C220.829 30.973 219.788 31.972 219.118 33.1646C218.445 34.3572 218.112 35.7086 218.112 37.2187C218.112 38.7288 218.499 40.1809 219.269 41.3735C220.039 42.5661 221.131 43.4799 222.539 44.1188C223.948 44.7577 225.608 45.0752 227.52 45.0752C229.029 45.0752 230.403 44.8661 231.645 44.4441C232.887 44.0259 233.994 43.4218 234.965 42.6319C235.36 42.3144 235.724 41.9543 236.072 41.5748V44.4712H242.31V26.2451C242.31 24.2974 241.83 22.5937 240.875 21.1339V21.13ZM234.834 36.7114C234.246 37.753 233.425 38.5662 232.369 39.1548C231.312 39.7433 230.097 40.0376 228.719 40.0376C227.644 40.0376 226.75 39.7627 226.026 39.2051C225.302 38.6514 224.942 37.9041 224.942 36.9631C224.942 36.0222 225.26 35.2013 225.898 34.5973C226.537 33.9932 227.508 33.575 228.816 33.3388L235.708 32.1656V33.2885C235.708 34.5314 235.414 35.6737 234.826 36.7114H234.834ZM270.44 21.4321C269.57 19.8716 268.35 18.6558 266.791 17.7807C265.231 16.9094 263.444 16.4719 261.431 16.4719C259.419 16.4719 257.782 16.9017 256.323 17.7574C255.197 18.4196 254.318 19.3179 253.68 20.4485V17.0798H247.492V44.4712H254.082V28.4096C254.082 27.2015 254.318 26.1599 254.787 25.2887C255.255 24.4175 255.909 23.736 256.749 23.2481C257.588 22.7602 258.544 22.5163 259.616 22.5163C260.688 22.5163 261.687 22.7602 262.511 23.2481C263.331 23.736 263.978 24.4136 264.45 25.2887C264.918 26.1638 265.154 27.2015 265.154 28.4096V44.4712H271.744V26.8492C271.744 24.8008 271.307 22.9964 270.436 21.4359L270.44 21.4321ZM288.539 45.0714C286.156 45.0714 284.05 44.5912 282.224 43.6348C280.393 42.6784 278.977 41.3425 277.971 39.631C276.965 37.9195 276.462 35.937 276.462 33.6912V17.0759H283.052V33.4898C283.052 34.5973 283.288 35.573 283.756 36.4094C284.225 37.2497 284.879 37.8963 285.718 38.3494C286.558 38.8024 287.514 39.0308 288.586 39.0308C289.658 39.0308 290.656 38.8063 291.481 38.3494C292.301 37.8963 292.947 37.2497 293.419 36.4094C293.888 35.5692 294.124 34.5973 294.124 33.4898V17.0759H300.714V33.6912C300.714 35.9409 300.203 37.9195 299.178 39.631C298.152 41.3425 296.736 42.6784 294.925 43.6348C293.114 44.5912 290.981 45.0714 288.536 45.0714H288.539ZM332.845 23.5191C331.619 21.3701 329.97 19.6586 327.888 18.3847C325.806 17.1108 323.476 16.4719 320.895 16.4719C318.782 16.4719 316.921 16.8823 315.311 17.7071C314.216 18.2685 313.279 18.981 312.494 19.8445V6.79932H305.903V44.4673H312.091V41.3619C312.974 42.419 314.073 43.2631 315.388 43.8865C317.049 44.6764 318.867 45.0714 320.849 45.0714C323.5 45.0714 325.864 44.4402 327.942 43.1818C330.02 41.9233 331.665 40.2041 332.872 38.0202C334.08 35.8402 334.683 33.4201 334.683 30.7716C334.683 28.1231 334.072 25.6682 332.845 23.523V23.5191ZM326.859 35.0503C326.205 36.2933 325.291 37.2652 324.115 37.9699C322.938 38.6746 321.6 39.027 320.09 39.027C318.581 39.027 317.347 38.6746 316.189 37.9699C315.032 37.2652 314.127 36.2933 313.473 35.0503C312.819 33.8074 312.49 32.3824 312.49 30.7716C312.49 29.1608 312.819 27.7746 313.473 26.5162C314.127 25.2577 315.032 24.2742 316.189 23.5695C317.347 22.8647 318.647 22.5124 320.09 22.5124C321.534 22.5124 322.942 22.8725 324.115 23.5966C325.287 24.3207 326.205 25.2926 326.859 26.5162C327.513 27.7436 327.842 29.1608 327.842 30.7716C327.842 32.3824 327.513 33.8112 326.859 35.0503ZM362.871 24.704C362.268 23.1087 361.393 21.6915 360.255 20.4485C359.114 19.2056 357.732 18.2337 356.103 17.529C354.474 16.8242 352.589 16.4719 350.441 16.4719C347.891 16.4719 345.585 17.0914 343.522 18.3344C341.46 19.5773 339.83 21.2617 338.642 23.3952C337.45 25.5288 336.854 27.9682 336.854 30.7213C336.854 33.4744 337.443 35.7899 338.615 37.9699C339.788 40.1538 341.432 41.8807 343.545 43.1547C345.658 44.4325 348.123 45.0675 350.941 45.0675C352.818 45.0675 354.54 44.7809 356.099 44.2117C357.659 43.6425 359.009 42.8526 360.151 41.8459C361.292 40.8391 362.128 39.6814 362.666 38.3726L357.334 35.755C356.73 36.8315 355.898 37.6872 354.841 38.3222C353.785 38.9611 352.5 39.2787 350.991 39.2787C349.482 39.2787 348.147 38.9263 346.99 38.2216C345.832 37.5168 344.958 36.5178 344.374 35.2246C344.014 34.4346 343.789 33.5673 343.7 32.6302H363.417C363.552 32.2624 363.641 31.8248 363.692 31.3215C363.742 30.8181 363.769 30.3302 363.769 29.8617C363.769 28.0147 363.467 26.2954 362.864 24.7001L362.871 24.704ZM347.156 22.9422C348.228 22.253 349.455 21.9083 350.828 21.9083C352.202 21.9083 353.503 22.2607 354.528 22.9654C355.55 23.6701 356.289 24.6266 356.742 25.8347C356.947 26.3845 357.074 26.9731 357.121 27.5965H344.23C344.343 27.0118 344.501 26.4658 344.714 25.9586C345.267 24.6343 346.08 23.6276 347.156 22.9383V22.9422ZM109.354 17.0992V9.36654H102.795V17.0992H98.2052V22.9654H102.795V44.4634H109.354V22.9654H113.944V17.0992H109.354ZM120.581 5.49054C118.441 5.49054 116.707 7.22525 116.707 9.36654C116.707 11.5078 118.441 13.2425 120.581 13.2425C122.721 13.2425 124.454 11.5078 124.454 9.36654C124.454 7.22525 122.721 5.49054 120.581 5.49054Z" fill="var(--fill-0, white)"/>
<path id="Vector_2" d="M54.6886 0H54.6538C54.6538 0 54.6344 0 54.6228 0C46.5968 0.0116164 38.95 3.16739 33.2419 8.72002C30.3202 7.48094 27.174 6.83816 23.9234 6.83816C10.7311 6.83816 0 17.5756 0 30.7717C0 43.9679 10.7311 54.7053 23.9195 54.7053C27.1199 54.7053 30.2854 54.0509 33.2149 52.8196C38.7565 58.2135 46.3143 61.5435 54.6383 61.5435C71.596 61.5435 85.3919 47.7394 85.3919 30.7717C85.3919 13.8041 71.623 0.0271048 54.6886 0ZM54.6383 54.7053C41.4499 54.7053 30.7188 43.9679 30.7188 30.7717H23.8847C23.8847 36.8084 25.6377 42.4384 28.6484 47.1934C27.116 47.6348 25.5255 47.8672 23.9195 47.8672C14.5003 47.8672 6.83414 40.1965 6.83414 30.7717C6.83414 21.347 14.5003 13.6763 23.9195 13.6763C27.65 13.6763 31.1948 14.8573 34.1668 17.0915C38.5127 20.3557 41.0049 25.343 41.0049 30.7717H47.839C47.839 23.6122 44.7393 17.0025 39.2944 12.4411C43.5706 8.85167 48.9922 6.84204 54.6538 6.83816C67.8345 6.84591 78.5539 17.5794 78.5539 30.7717C78.5539 43.9641 67.8229 54.7053 54.6344 54.7053H54.6383Z" fill="var(--fill-0, white)"/>
</g>
</svg>
